<?xml version="1.0" encoding="UTF-8" standalone="no"?>
<!-- Created with Inkscape (http://www.inkscape.org/) -->

<svg
   xmlns:dc="http://purl.org/dc/elements/1.1/"
   xmlns:cc="http://creativecommons.org/ns#"
   xmlns:rdf="http://www.w3.org/1999/02/22-rdf-syntax-ns#"
   xmlns:svg="http://www.w3.org/2000/svg"
   xmlns="http://www.w3.org/2000/svg"
   xmlns:sodipodi="http://sodipodi.sourceforge.net/DTD/sodipodi-0.dtd"
   xmlns:inkscape="http://www.inkscape.org/namespaces/inkscape"
   width="635.08997"
   height="298.21594"
   id="svg2"
   version="1.1"
   inkscape:version="0.92.4 (5da689c313, 2019-01-14)"
   sodipodi:docname="analogbemaforming.svg">
  <sodipodi:namedview
     id="base"
     pagecolor="#ffffff"
     bordercolor="#666666"
     borderopacity="1.0"
     inkscape:pageopacity="0.0"
     inkscape:pageshadow="2"
     inkscape:zoom="1.5511122"
     inkscape:cx="243.14943"
     inkscape:cy="153.08481"
     inkscape:document-units="px"
     inkscape:current-layer="layer1"
     showgrid="false"
     inkscape:window-width="2490"
     inkscape:window-height="1016"
     inkscape:window-x="1990"
     inkscape:window-y="27"
     inkscape:window-maximized="1"
     fit-margin-top="0"
     fit-margin-left="0"
     fit-margin-right="0"
     fit-margin-bottom="0" />
  <defs
     id="defs4" />
  <metadata
     id="metadata7">
    <rdf:RDF>
      <cc:Work
         rdf:about="">
        <dc:format>image/svg+xml</dc:format>
        <dc:type
           rdf:resource="http://purl.org/dc/dcmitype/StillImage" />
        <dc:title></dc:title>
      </cc:Work>
    </rdf:RDF>
  </metadata>
  <ellipse
     style="fill:#cccccc;stroke:#cccccc;stroke-width:0.35831666"
     id="path10595"
     transform="rotate(-30)"
     cx="393.76709"
     cy="323.26102"
     rx="151.00023"
     ry="39.44669"
     inkscape:transform-center-x="-131.0689"
     inkscape:transform-center-y="-75.672669" />
  <ellipse
     id="path10597"
     style="fill:#cccccc;stroke:#cccccc;stroke-width:0.11537498"
     transform="matrix(0.25881905,-0.96592583,0.5,0.8660254,0,0)"
     inkscape:transform-center-x="-10.740803"
     inkscape:transform-center-y="-39.592906"
     cx="383.98727"
     cy="565.86298"
     rx="40.847878"
     ry="15.118476" />
  <ellipse
     inkscape:transform-center-x="-66.96004"
     transform="matrix(1,0,0.5,0.8660254,0,0)"
     style="fill:#cccccc;stroke:#cccccc;stroke-width:0.1473745"
     id="path10601"
     inkscape:transform-center-y="-0.082982601"
     cx="346.9325"
     cy="183.20291"
     rx="66.737152"
     ry="15.098412" />
  <ellipse
     id="path10605"
     style="fill:#cccccc;stroke:#cccccc;stroke-width:0.1473745"
     transform="matrix(0.5,-0.86602541,0.5,0.8660254,0,0)"
     inkscape:transform-center-x="-33.551883"
     inkscape:transform-center-y="-57.947611"
     cx="346.9325"
     cy="463.31909"
     rx="66.737152"
     ry="15.098412" />
  <ellipse
     inkscape:transform-center-x="-39.658865"
     transform="matrix(0.96592583,0.25881905,0.5,0.8660254,0,0)"
     style="fill:#cccccc;stroke:#cccccc;stroke-width:0.11537498"
     id="path10607"
     inkscape:transform-center-y="10.494656"
     cx="383.9873"
     cy="80.659058"
     rx="40.847878"
     ry="15.118476" />
  <g
     id="layer1"
     inkscape:groupmode="layer"
     inkscape:label="Layer 1"
     transform="translate(292.9258,-97.740168)">
    <rect
       y="206.56149"
       x="-200.20534"
       height="78.8228"
       width="118.97497"
       id="rect2985"
       style="fill:#ffffff;fill-rule:evenodd;stroke:#000000;stroke-width:0.80851465px;stroke-linecap:butt;stroke-linejoin:miter;stroke-opacity:1" />
    <text
       id="text2987"
       y="259.35696"
       x="-183.37952"
       style="font-style:normal;font-weight:normal;line-height:0%;font-family:sans-serif;letter-spacing:0px;word-spacing:0px;fill:#000000;fill-opacity:1;stroke:none"
       xml:space="preserve"><tspan
         y="259.35696"
         x="-183.37952"
         id="tspan2989"
         sodipodi:role="line"
         style="font-size:40px;line-height:1.25;font-family:sans-serif">DAC</tspan></text>
    <path
       style="fill:none;stroke:#000000;stroke-width:1px;stroke-linecap:butt;stroke-linejoin:miter;stroke-opacity:1"
       d="m -81.326104,245.9729 h 71.10279 V 137.22746 h 56.46398"
       id="path3022"
       inkscape:connector-curvature="0"
       sodipodi:nodetypes="cccc" />
    <g
       id="g3070"
       transform="translate(-289.61545)">
      <circle
         transform="matrix(0.49147647,0,0,0.49147647,191.52858,323.26278)"
         id="path3064"
         style="fill:#ffffff;stroke:#000000"
         cx="242.58598"
         cy="93.729286"
         r="16.730068" />
      <path
         inkscape:connector-curvature="0"
         id="path3066"
         d="m 300.88696,380.4288 18.9116,-22.20057"
         style="fill:none;stroke:#000000;stroke-width:0.49147648px;stroke-linecap:butt;stroke-linejoin:miter;stroke-opacity:1" />
      <path
         inkscape:connector-curvature="0"
         id="path3068"
         d="m 312.80949,359.05047 6.98907,-1.23336 -0.82224,6.16682"
         style="fill:none;stroke:#000000;stroke-width:0.49147648px;stroke-linecap:butt;stroke-linejoin:miter;stroke-opacity:1" />
    </g>
    <g
       id="g3075"
       transform="translate(-289.61545,-33.101677)">
      <circle
         style="fill:#ffffff;stroke:#000000"
         id="path3077"
         transform="matrix(0.49147647,0,0,0.49147647,191.52858,323.26278)"
         cx="242.58598"
         cy="93.729286"
         r="16.730068" />
      <path
         style="fill:none;stroke:#000000;stroke-width:0.49147648px;stroke-linecap:butt;stroke-linejoin:miter;stroke-opacity:1"
         d="m 300.88696,380.4288 18.9116,-22.20057"
         id="path3079"
         inkscape:connector-curvature="0" />
      <path
         style="fill:none;stroke:#000000;stroke-width:0.49147648px;stroke-linecap:butt;stroke-linejoin:miter;stroke-opacity:1"
         d="m 312.80949,359.05047 6.98907,-1.23336 -0.82224,6.16682"
         id="path3081"
         inkscape:connector-curvature="0" />
    </g>
    <g
       id="g3083"
       transform="translate(-288.77895,-66.203292)">
      <circle
         style="fill:#ffffff;stroke:#000000"
         id="path3085"
         transform="matrix(0.49147647,0,0,0.49147647,191.52858,323.26278)"
         cx="242.58598"
         cy="93.729286"
         r="16.730068" />
      <path
         style="fill:none;stroke:#000000;stroke-width:0.49147648px;stroke-linecap:butt;stroke-linejoin:miter;stroke-opacity:1"
         d="m 300.88696,380.4288 18.9116,-22.20057"
         id="path3087"
         inkscape:connector-curvature="0" />
      <path
         style="fill:none;stroke:#000000;stroke-width:0.49147648px;stroke-linecap:butt;stroke-linejoin:miter;stroke-opacity:1"
         d="m 312.80949,359.05047 6.98907,-1.23336 -0.82224,6.16682"
         id="path3089"
         inkscape:connector-curvature="0" />
    </g>
    <g
       transform="translate(-288.77895,-99.30491)"
       id="g3091">
      <circle
         transform="matrix(0.49147647,0,0,0.49147647,191.52858,323.26278)"
         id="path3093"
         style="fill:#ffffff;stroke:#000000"
         cx="242.58598"
         cy="93.729286"
         r="16.730068" />
      <path
         inkscape:connector-curvature="0"
         id="path3095"
         d="m 300.88696,380.4288 18.9116,-22.20057"
         style="fill:none;stroke:#000000;stroke-width:0.49147648px;stroke-linecap:butt;stroke-linejoin:miter;stroke-opacity:1" />
      <path
         inkscape:connector-curvature="0"
         id="path3097"
         d="m 312.80949,359.05047 6.98907,-1.23336 -0.82224,6.16682"
         style="fill:none;stroke:#000000;stroke-width:0.49147648px;stroke-linecap:butt;stroke-linejoin:miter;stroke-opacity:1" />
    </g>
    <g
       id="g3099"
       transform="translate(-287.94245,-132.40653)">
      <circle
         style="fill:#ffffff;stroke:#000000"
         id="path3101"
         transform="matrix(0.49147647,0,0,0.49147647,191.52858,323.26278)"
         cx="242.58598"
         cy="93.729286"
         r="16.730068" />
      <path
         style="fill:none;stroke:#000000;stroke-width:0.49147648px;stroke-linecap:butt;stroke-linejoin:miter;stroke-opacity:1"
         d="m 300.88696,380.4288 18.9116,-22.20057"
         id="path3103"
         inkscape:connector-curvature="0" />
      <path
         style="fill:none;stroke:#000000;stroke-width:0.49147648px;stroke-linecap:butt;stroke-linejoin:miter;stroke-opacity:1"
         d="m 312.80949,359.05047 6.98907,-1.23336 -0.82224,6.16682"
         id="path3105"
         inkscape:connector-curvature="0" />
    </g>
    <g
       transform="translate(-287.94245,-165.50821)"
       id="g3107">
      <circle
         transform="matrix(0.49147647,0,0,0.49147647,191.52858,323.26278)"
         id="path3109"
         style="fill:#ffffff;stroke:#000000"
         cx="242.58598"
         cy="93.729286"
         r="16.730068" />
      <path
         inkscape:connector-curvature="0"
         id="path3111"
         d="m 300.88696,380.4288 18.9116,-22.20057"
         style="fill:none;stroke:#000000;stroke-width:0.49147648px;stroke-linecap:butt;stroke-linejoin:miter;stroke-opacity:1" />
      <path
         inkscape:connector-curvature="0"
         id="path3113"
         d="m 312.80949,359.05047 6.98907,-1.23336 -0.82224,6.16682"
         style="fill:none;stroke:#000000;stroke-width:0.49147648px;stroke-linecap:butt;stroke-linejoin:miter;stroke-opacity:1" />
    </g>
    <g
       transform="translate(-287.10594,-198.60983)"
       id="g3115">
      <circle
         transform="matrix(0.49147647,0,0,0.49147647,191.52858,323.26278)"
         id="path3117"
         style="fill:#ffffff;stroke:#000000"
         cx="242.58598"
         cy="93.729286"
         r="16.730068" />
      <path
         inkscape:connector-curvature="0"
         id="path3119"
         d="m 300.88696,380.4288 18.9116,-22.20057"
         style="fill:none;stroke:#000000;stroke-width:0.49147648px;stroke-linecap:butt;stroke-linejoin:miter;stroke-opacity:1" />
      <path
         inkscape:connector-curvature="0"
         id="path3121"
         d="m 312.80949,359.05047 6.98907,-1.23336 -0.82224,6.16682"
         style="fill:none;stroke:#000000;stroke-width:0.49147648px;stroke-linecap:butt;stroke-linejoin:miter;stroke-opacity:1" />
    </g>
    <g
       id="g3123"
       transform="translate(-287.10594,-231.71144)">
      <circle
         style="fill:#ffffff;stroke:#000000"
         id="path3125"
         transform="matrix(0.49147647,0,0,0.49147647,191.52858,323.26278)"
         cx="242.58598"
         cy="93.729286"
         r="16.730068" />
      <path
         style="fill:none;stroke:#000000;stroke-width:0.49147648px;stroke-linecap:butt;stroke-linejoin:miter;stroke-opacity:1"
         d="m 300.88696,380.4288 18.9116,-22.20057"
         id="path3127"
         inkscape:connector-curvature="0" />
      <path
         style="fill:none;stroke:#000000;stroke-width:0.49147648px;stroke-linecap:butt;stroke-linejoin:miter;stroke-opacity:1"
         d="m 312.80949,359.05047 6.98907,-1.23336 -0.82224,6.16682"
         id="path3129"
         inkscape:connector-curvature="0" />
    </g>
    <path
       style="fill:none;stroke:#000000;stroke-width:1px;stroke-linecap:butt;stroke-linejoin:miter;stroke-opacity:1"
       d="m -10.223314,245.1364 v 124.63901 h 56.46398"
       id="path3165"
       inkscape:connector-curvature="0"
       sodipodi:nodetypes="ccc" />
    <path
       style="fill:none;stroke:#000000;stroke-width:1px;stroke-linecap:butt;stroke-linejoin:miter;stroke-opacity:1"
       d="m 45.822406,170.51313 h -56.88223"
       id="path3167"
       inkscape:connector-curvature="0" />
    <path
       inkscape:connector-curvature="0"
       id="path3169"
       d="m 45.822406,203.61475 h -56.88223"
       style="fill:none;stroke:#000000;stroke-width:1px;stroke-linecap:butt;stroke-linejoin:miter;stroke-opacity:1" />
    <path
       style="fill:none;stroke:#000000;stroke-width:1px;stroke-linecap:butt;stroke-linejoin:miter;stroke-opacity:1"
       d="m 45.822406,236.71643 h -56.88223"
       id="path3171"
       inkscape:connector-curvature="0" />
    <path
       inkscape:connector-curvature="0"
       id="path3173"
       d="m 45.822406,269.81805 h -56.88223"
       style="fill:none;stroke:#000000;stroke-width:1px;stroke-linecap:butt;stroke-linejoin:miter;stroke-opacity:1" />
    <path
       style="fill:none;stroke:#000000;stroke-width:1px;stroke-linecap:butt;stroke-linejoin:miter;stroke-opacity:1"
       d="m 45.822406,302.91966 h -56.88223"
       id="path3175"
       inkscape:connector-curvature="0" />
    <path
       inkscape:connector-curvature="0"
       id="path3177"
       d="m 45.822406,336.02128 h -56.88223"
       style="fill:none;stroke:#000000;stroke-width:1px;stroke-linecap:butt;stroke-linejoin:miter;stroke-opacity:1" />
    <path
       style="fill:none;stroke:#000000;stroke-width:1px;stroke-linecap:butt;stroke-linejoin:miter;stroke-opacity:1"
       d="m 45.822406,137.22746 11.2928,-11.29279 v 21.33083 z"
       id="path3179"
       inkscape:connector-curvature="0" />
    <path
       inkscape:connector-curvature="0"
       id="path3181"
       d="m 45.822406,369.77541 11.2928,-11.29279 v 21.33083 z"
       style="fill:none;stroke:#000000;stroke-width:1px;stroke-linecap:butt;stroke-linejoin:miter;stroke-opacity:1" />
    <path
       style="fill:none;stroke:#000000;stroke-width:1px;stroke-linecap:butt;stroke-linejoin:miter;stroke-opacity:1"
       d="m 45.822406,336.55424 11.2928,-11.29279 v 21.33083 z"
       id="path3183"
       inkscape:connector-curvature="0" />
    <path
       inkscape:connector-curvature="0"
       id="path3185"
       d="m 45.822406,303.33313 11.2928,-11.29279 v 21.33083 z"
       style="fill:none;stroke:#000000;stroke-width:1px;stroke-linecap:butt;stroke-linejoin:miter;stroke-opacity:1" />
    <path
       style="fill:none;stroke:#000000;stroke-width:1px;stroke-linecap:butt;stroke-linejoin:miter;stroke-opacity:1"
       d="m 45.822406,270.11197 11.2928,-11.29279 v 21.33083 z"
       id="path3187"
       inkscape:connector-curvature="0" />
    <path
       style="fill:none;stroke:#000000;stroke-width:1px;stroke-linecap:butt;stroke-linejoin:miter;stroke-opacity:1"
       d="m 45.822406,170.4486 11.2928,-11.29279 v 21.33083 z"
       id="path3191"
       inkscape:connector-curvature="0" />
    <path
       inkscape:connector-curvature="0"
       id="path3193"
       d="m 45.822406,203.66973 11.2928,-11.29279 v 21.33083 z"
       style="fill:none;stroke:#000000;stroke-width:1px;stroke-linecap:butt;stroke-linejoin:miter;stroke-opacity:1" />
    <path
       style="fill:none;stroke:#000000;stroke-width:1px;stroke-linecap:butt;stroke-linejoin:miter;stroke-opacity:1"
       d="m 45.822406,236.89084 11.2928,-11.29279 v 21.33083 z"
       id="path3195"
       inkscape:connector-curvature="0" />
    <g
       transform="translate(-592.64705,-156.47485)"
       id="g3253">
      <g
         style="font-style:normal;font-variant:normal;font-weight:normal;font-stretch:normal;letter-spacing:normal;word-spacing:normal;text-anchor:start;fill:none;stroke:#000000;stroke-linecap:butt;stroke-linejoin:miter;stroke-miterlimit:10.43299961;stroke-dasharray:none;stroke-dashoffset:0;stroke-opacity:1"
         id="content"
         transform="matrix(1.0629921,0,0,-1.0629921,-186.02362,789.27165)"
         xml:space="preserve"
         stroke-miterlimit="10.433"
         font-style="normal"
         font-variant="normal"
         font-weight="normal"
         font-stretch="normal"
         font-size-adjust="none"
         letter-spacing="normal"
         word-spacing="normal"><path
           style="fill:#000000;stroke-width:0"
           inkscape:connector-curvature="0"
           d="m 472.16,421.25 0.03,0.13 0.04,0.15 0.04,0.16 0.04,0.18 0.06,0.19 0.06,0.21 0.06,0.22 0.07,0.22 0.08,0.23 0.09,0.24 0.1,0.25 0.1,0.24 0.11,0.25 0.12,0.25 0.13,0.25 0.14,0.25 0.15,0.24 0.15,0.24 0.17,0.23 0.18,0.22 0.18,0.22 0.2,0.2 0.21,0.19 0.22,0.18 0.23,0.16 0.25,0.14 0.12,0.07 0.13,0.06 0.14,0.05 0.13,0.05 0.14,0.05 0.14,0.04 0.15,0.03 0.15,0.03 0.15,0.02 0.16,0.02 0.16,0.01 h 0.16 c 0.25,0 1.44,0 2.48,-0.64 -1.39,-0.25 -2.39,-1.5 -2.39,-2.69 0,-0.79 0.55,-1.75 1.89,-1.75 1.1,0 2.69,0.89 2.69,2.89 0,2.6 -2.94,3.28 -4.63,3.28 -2.89,0 -4.64,-2.64 -5.23,-3.78 -1.25,3.28 -3.94,3.78 -5.37,3.78 -5.19,0 -8.04,-6.42 -8.04,-7.67 0,-0.5 0.5,-0.5 0.61,-0.5 0.39,0 0.55,0.11 0.64,0.55 1.69,5.28 4.99,6.53 6.68,6.53 0.95,0 2.68,-0.44 2.68,-3.33 0,-1.54 -0.84,-4.89 -2.68,-11.86 -0.8,-3.09 -2.54,-5.18 -4.74,-5.18 -0.3,0 -1.44,0 -2.48,0.65 1.25,0.24 2.34,1.28 2.34,2.69 0,1.34 -1.09,1.73 -1.84,1.73 -1.5,0 -2.75,-1.29 -2.75,-2.89 0,-2.28 2.5,-3.28 4.68,-3.28 3.3,0 5.08,3.49 5.24,3.78 0.59,-1.84 2.39,-3.78 5.37,-3.78 5.14,0 7.99,6.42 7.99,7.67 0,0.5 -0.45,0.5 -0.61,0.5 -0.44,0 -0.55,-0.2 -0.64,-0.54 -1.64,-5.33 -5.03,-6.53 -6.63,-6.53 -1.95,0 -2.75,1.59 -2.75,3.29 0,1.1 0.3,2.19 0.86,4.38 z"
           id="path3256" /><polygon
           style="fill:#000000;stroke-width:0"
           points="491.83,395.73 491.83,441.57 496.66,441.57 496.66,443.56 489.83,443.56 489.83,393.75 496.66,393.75 496.66,395.73 "
           id="polygon3258" /><path
           style="fill:#000000;stroke-width:0"
           inkscape:connector-curvature="0"
           d="m 502.14,409.14 -0.01,-0.07 -0.02,-0.08 -0.01,-0.07 -0.02,-0.08 -0.04,-0.16 -0.03,-0.16 -0.04,-0.16 -0.04,-0.16 -0.03,-0.16 -0.04,-0.16 -0.02,-0.08 -0.02,-0.07 -0.01,-0.07 -0.02,-0.07 -0.01,-0.07 -0.02,-0.07 -0.01,-0.06 -0.01,-0.06 -0.01,-0.06 -0.01,-0.05 -0.01,-0.05 -0.01,-0.04 v -0.04 l -0.01,-0.04 V 407.02 407 c 0,-0.89 0.7,-1.35 1.44,-1.35 0.61,0 1.5,0.39 1.84,1.39 0.07,0.11 0.66,2.44 0.96,3.69 l 1.09,4.48 c 0.3,1.1 0.59,2.19 0.84,3.35 0.21,0.84 0.61,2.28 0.66,2.48 0.75,1.55 3.39,6.08 8.11,6.08 2.25,0 2.7,-1.84 2.7,-3.48 0,-3.1 -2.45,-9.47 -3.25,-11.61 -0.43,-1.14 -0.48,-1.75 -0.48,-2.3 0,-2.33 1.73,-4.08 4.08,-4.08 4.68,0 6.53,7.27 6.53,7.67 0,0.5 -0.46,0.5 -0.61,0.5 -0.49,0 -0.49,-0.15 -0.74,-0.9 -1,-3.38 -2.64,-6.17 -5.09,-6.17 -0.84,0 -1.19,0.5 -1.19,1.64 0,1.25 0.45,2.45 0.89,3.54 0.96,2.64 3.05,8.11 3.05,10.96 0,3.34 -2.14,5.32 -5.74,5.32 -4.48,0 -6.92,-3.18 -7.76,-4.32 -0.25,2.79 -2.3,4.32 -4.59,4.32 -2.29,0 -3.24,-1.93 -3.74,-2.82 -0.8,-1.71 -1.5,-4.64 -1.5,-4.85 0,-0.5 0.5,-0.5 0.61,-0.5 0.5,0 0.55,0.07 0.84,1.16 0.85,3.53 1.85,5.92 3.65,5.92 0.98,0 1.54,-0.64 1.54,-2.28 0,-1.05 -0.15,-1.61 -0.79,-4.19 z"
           id="path3260" /><polygon
           style="fill:#000000;stroke-width:0"
           points="528.73,441.57 533.55,441.57 533.55,395.73 528.73,395.73 528.73,393.75 535.55,393.75 535.55,443.56 528.73,443.56 "
           id="polygon3262" /></g>    </g>
    <g
       id="g1113"
       transform="translate(-154.62662,-808.71489)">
      <g
         word-spacing="normal"
         letter-spacing="normal"
         font-size-adjust="none"
         font-stretch="normal"
         font-weight="normal"
         font-variant="normal"
         font-style="normal"
         stroke-miterlimit="10.433"
         xml:space="preserve"
         transform="matrix(0.5615663,0,0,-0.5615663,-98.274102,1159.9841)"
         id="g1111"
         style="font-style:normal;font-variant:normal;font-weight:normal;font-stretch:normal;letter-spacing:normal;word-spacing:normal;text-anchor:start;fill:none;fill-opacity:1;fill-rule:evenodd;stroke:#000000;stroke-linecap:butt;stroke-linejoin:miter;stroke-miterlimit:10.43299961;stroke-dasharray:none;stroke-dashoffset:0;stroke-opacity:1"><path
           id="path1107"
           d="m 478.83,424.73 v 0.12 0.13 l -0.01,0.12 v 0.11 l -0.01,0.12 -0.01,0.11 -0.01,0.11 -0.02,0.1 -0.03,0.21 -0.03,0.19 -0.05,0.18 -0.04,0.18 -0.06,0.16 -0.06,0.16 -0.06,0.15 -0.07,0.13 -0.07,0.13 -0.07,0.12 -0.08,0.12 -0.08,0.1 -0.08,0.1 -0.09,0.09 -0.08,0.08 -0.09,0.07 -0.09,0.07 -0.09,0.06 -0.1,0.05 -0.09,0.05 -0.09,0.04 -0.09,0.03 -0.09,0.03 -0.1,0.03 -0.09,0.01 -0.08,0.02 h -0.09 -0.09 c -1.25,0 -2.43,-1.29 -2.43,-2.39 0,-0.64 0.25,-0.93 0.79,-1.48 1.05,-1 1.69,-2.3 1.69,-4.09 0,-2.1 -3.03,-13.5 -8.86,-13.5 -2.54,0 -3.69,1.75 -3.69,4.32 0,2.8 1.35,6.44 2.9,10.57 0.34,0.86 0.59,1.54 0.59,2.5 0,2.23 -1.59,4.07 -4.09,4.07 -4.68,0 -6.58,-7.21 -6.58,-7.67 0,-0.5 0.5,-0.5 0.61,-0.5 0.5,0 0.54,0.11 0.79,0.91 1.44,5.03 3.58,6.17 5.03,6.17 0.4,0 1.25,0 1.25,-1.59 0,-1.25 -0.5,-2.6 -0.85,-3.49 -2.19,-5.78 -2.83,-8.08 -2.83,-10.22 0,-5.37 4.37,-6.17 6.67,-6.17 8.37,0 11.2,16.49 11.2,19.08 z"
           inkscape:connector-curvature="0"
           style="fill:#000000;stroke-width:0" /><path
           id="path1109"
           d="m 491.31,420.92 v 0.04 0.04 0.05 0.04 0.03 0.04 0.04 0.03 0.04 0.03 l -0.01,0.03 v 0.03 0.03 l -0.01,0.03 v 0.03 0.02 l -0.01,0.03 v 0.02 l -0.01,0.03 v 0.02 l -0.01,0.04 -0.02,0.04 -0.02,0.03 -0.02,0.03 -0.02,0.03 -0.02,0.03 -0.03,0.02 -0.03,0.02 -0.03,0.02 -0.04,0.01 -0.04,0.01 -0.05,0.02 h -0.02 -0.02 l -0.03,0.01 h -0.03 l -0.02,0.01 h -0.03 -0.03 -0.03 -0.03 l -0.04,0.01 h -0.03 -0.04 -0.03 -0.04 -0.04 -0.04 -0.04 -0.04 -0.05 -0.04 c -2.24,-2.2 -5.39,-2.23 -6.83,-2.23 v -1.25 c 0.84,0 3.14,0 5.04,0.97 v -17.77 c 0,-1.16 0,-1.61 -3.48,-1.61 h -1.31 v -1.25 c 0.62,0.03 4.9,0.14 6.2,0.14 1.08,0 5.47,-0.11 6.23,-0.14 v 1.25 h -1.32 c -3.49,0 -3.49,0.45 -3.49,1.61 z"
           inkscape:connector-curvature="0"
           style="fill:#000000;stroke-width:0" /></g>    </g>
    <g
       id="g1196"
       transform="translate(-159.23125,-540.09781)">
      <g
         word-spacing="normal"
         letter-spacing="normal"
         font-size-adjust="none"
         font-stretch="normal"
         font-weight="normal"
         font-variant="normal"
         font-style="normal"
         stroke-miterlimit="10.433"
         xml:space="preserve"
         transform="matrix(0.5615663,0,0,-0.5615663,-98.274102,1159.9841)"
         id="g1194"
         style="font-style:normal;font-variant:normal;font-weight:normal;font-stretch:normal;letter-spacing:normal;word-spacing:normal;text-anchor:start;fill:none;fill-opacity:1;fill-rule:evenodd;stroke:#000000;stroke-linecap:butt;stroke-linejoin:miter;stroke-miterlimit:10.43299961;stroke-dasharray:none;stroke-dashoffset:0;stroke-opacity:1"><path
           id="path1190"
           d="m 478.83,424.73 v 0.12 0.13 l -0.01,0.12 v 0.11 l -0.01,0.12 -0.01,0.11 -0.01,0.11 -0.02,0.1 -0.03,0.21 -0.03,0.19 -0.05,0.18 -0.04,0.18 -0.06,0.16 -0.06,0.16 -0.06,0.15 -0.07,0.13 -0.07,0.13 -0.07,0.12 -0.08,0.12 -0.08,0.1 -0.08,0.1 -0.09,0.09 -0.08,0.08 -0.09,0.07 -0.09,0.07 -0.09,0.06 -0.1,0.05 -0.09,0.05 -0.09,0.04 -0.09,0.03 -0.09,0.03 -0.1,0.03 -0.09,0.01 -0.08,0.02 h -0.09 -0.09 c -1.25,0 -2.43,-1.29 -2.43,-2.39 0,-0.64 0.25,-0.93 0.79,-1.48 1.05,-1 1.69,-2.3 1.69,-4.09 0,-2.1 -3.03,-13.5 -8.86,-13.5 -2.54,0 -3.69,1.75 -3.69,4.32 0,2.8 1.35,6.44 2.9,10.57 0.34,0.86 0.59,1.54 0.59,2.5 0,2.23 -1.59,4.07 -4.09,4.07 -4.68,0 -6.58,-7.21 -6.58,-7.67 0,-0.5 0.5,-0.5 0.61,-0.5 0.5,0 0.54,0.11 0.79,0.91 1.44,5.03 3.58,6.17 5.03,6.17 0.4,0 1.25,0 1.25,-1.59 0,-1.25 -0.5,-2.6 -0.85,-3.49 -2.19,-5.78 -2.83,-8.08 -2.83,-10.22 0,-5.37 4.37,-6.17 6.67,-6.17 8.37,0 11.2,16.49 11.2,19.08 z"
           inkscape:connector-curvature="0"
           style="fill:#000000;stroke-width:0" /><path
           id="path1192"
           d="m 508.7,418.76 0.07,0.25 0.08,0.24 0.04,0.12 0.04,0.11 0.05,0.12 0.05,0.11 0.06,0.11 0.06,0.11 0.07,0.1 0.07,0.1 0.07,0.1 0.09,0.09 0.09,0.1 0.09,0.08 0.11,0.09 0.11,0.08 0.12,0.08 0.12,0.07 0.14,0.07 0.14,0.06 0.16,0.06 0.16,0.05 0.17,0.05 0.19,0.05 0.19,0.04 0.21,0.03 0.22,0.03 0.11,0.01 0.11,0.01 0.12,0.01 0.13,0.01 h 0.12 l 0.13,0.01 c 0.17,0 0.7,0.03 0.7,0.76 0,0.21 -0.17,0.49 -0.53,0.49 -1.14,0 -2.44,-0.14 -3.62,-0.14 -0.83,0 -2.85,0.14 -3.69,0.14 -0.17,0 -0.7,0 -0.7,-0.77 0,-0.45 0.45,-0.48 0.78,-0.48 1.62,-0.03 2.22,-0.56 2.22,-1.44 0,-0.26 -0.03,-0.45 -0.14,-0.83 l -3.8,-15.18 -8.84,18.1 c -0.29,0.6 -0.35,0.6 -1.19,0.6 h -4.77 c -0.67,0 -1.12,0 -1.12,-0.77 0,-0.48 0.42,-0.48 1.15,-0.48 0.74,0 1.5,-0.03 2.22,-0.17 l -4.65,-18.64 c -0.32,-1.33 -0.91,-2.38 -3.63,-2.49 -0.25,0 -0.73,-0.03 -0.73,-0.73 0,-0.38 0.28,-0.52 0.51,-0.52 1.16,0 2.44,0.14 3.63,0.14 0.84,0 2.86,-0.14 3.7,-0.14 0.34,0 0.69,0.17 0.69,0.74 0,0.48 -0.42,0.51 -0.8,0.51 -2.2,0.08 -2.2,0.99 -2.2,1.47 0,0.14 0,0.31 0.14,0.88 l 4.47,17.82 10.17,-20.82 c 0.28,-0.57 0.42,-0.6 0.76,-0.6 0.57,0 0.57,0.11 0.74,0.74 z"
           inkscape:connector-curvature="0"
           style="fill:#000000;stroke-width:0" /></g>    </g>
  </g>
</svg>
